<svg width="400" height="108" viewBox="0 0 400 108" fill="none" xmlns="http://www.w3.org/2000/svg">
<path d="M135.529 23.0769L127.891 28.908L148.009 56.7912L126.923 81.5997L139.187 92.3077L156.4 68.3473L173.828 92.3077L186.092 80.9636L164.791 56.5791L184.37 29.3321L176.84 23.0769L156.4 47.0374L135.529 23.0769Z" fill="#35D4C7"/>
<path d="M193.153 27.1057L191.217 90.1873H207.354L205.417 27.1057H193.153Z" fill="#35D4C7"/>
<path d="M215.46 88.8091L224.282 90.3994L231.167 66.969L254.727 64.2125L261.719 90.3994L271.079 88.385L261.074 27.1057H225.465L215.46 88.8091ZM239.773 38.0257C242.427 38.3791 245.152 38.6265 247.949 38.7678L252.36 55.3069H234.609L239.773 38.0257Z" fill="#35D4C7"/>
<path d="M295.06 81.9178L291.402 35.4812L323.676 37.8137L319.695 79.5854L295.06 81.9178ZM334.864 27.1057H279.891V90.1873H334.864V27.1057Z" fill="#35D4C7"/>
<path d="M360.196 81.9178L356.538 35.4812L388.812 37.8137L384.831 79.5854L360.196 81.9178ZM400 27.1057H345.027V90.1873H400V27.1057Z" fill="#35D4C7"/>
<path fill-rule="evenodd" clip-rule="evenodd" d="M7.23157 48.0769L10.4167 30.7692L31.6506 17.7885L69.8718 13.4615L86.859 22.1154L88.9824 26.4423L95.3526 22.1154L103.846 65.3846L78.3654 69.7115L61.3782 100L35.8974 95.6731L27.4038 69.7115L1.92308 65.3846L6.16988 52.4039L10.4167 50.2404L7.23157 48.0769ZM52.8846 65.3846L69.8718 52.4039L74.1186 30.7692L31.6506 35.0962L35.8974 52.4039L52.8846 48.0769L35.8974 65.3846L44.391 82.6923L61.3782 78.3654L69.8718 69.7115L52.8846 65.3846Z" fill="#35D4C7"/>
</svg>
